<svg xmlns="http://www.w3.org/2000/svg" viewBox="0 0 1280 760" role="img" aria-label="合成器键盘背景">
  <defs>
    <linearGradient id="body" x1="0" x2="1">
      <stop offset="0" stop-color="#fbfaf7"/>
      <stop offset="1" stop-color="#efe9df"/>
    </linearGradient>
    <linearGradient id="panel" x1="0" x2="1">
      <stop offset="0" stop-color="#f5f0e8"/>
      <stop offset="1" stop-color="#e7dfd3"/>
    </linearGradient>
    <filter id="shadow" x="-30%" y="-30%" width="170%" height="190%">
      <feDropShadow dx="0" dy="22" stdDeviation="22" flood-color="#8e8372" flood-opacity="0.28"/>
    </filter>
  </defs>
  <g filter="url(#shadow)" transform="translate(90 120) rotate(-9 560 220)">
    <rect x="0" y="0" width="1080" height="430" rx="34" fill="url(#body)" stroke="#c2b9ab" stroke-width="3"/>
    <rect x="30" y="28" width="1020" height="158" rx="26" fill="url(#panel)" stroke="#d8d0c4" stroke-width="2"/>

    <rect x="54" y="54" width="178" height="108" rx="22" fill="#1c2229"/>
    <rect x="80" y="82" width="74" height="34" rx="10" fill="#ff9547"/>
    <rect x="164" y="82" width="42" height="10" rx="5" fill="#d0cac2"/>
    <rect x="164" y="103" width="28" height="10" rx="5" fill="#d0cac2"/>
    <circle cx="108" cy="132" r="10" fill="#ffb880"/>
    <circle cx="140" cy="132" r="10" fill="#81b9f3"/>

    <g transform="translate(270 56)">
      <circle cx="28" cy="28" r="24" fill="#fffdf9" stroke="#d2cabc" stroke-width="2"/>
      <circle cx="28" cy="28" r="10" fill="#ff9547"/>
      <circle cx="90" cy="28" r="24" fill="#fffdf9" stroke="#d2cabc" stroke-width="2"/>
      <circle cx="90" cy="28" r="10" fill="#6f93eb"/>
      <circle cx="152" cy="28" r="24" fill="#fffdf9" stroke="#d2cabc" stroke-width="2"/>
      <circle cx="152" cy="28" r="10" fill="#ff9547"/>
      <circle cx="214" cy="28" r="24" fill="#fffdf9" stroke="#d2cabc" stroke-width="2"/>
      <circle cx="214" cy="28" r="10" fill="#6f93eb"/>
      <circle cx="276" cy="28" r="24" fill="#fffdf9" stroke="#d2cabc" stroke-width="2"/>
      <circle cx="276" cy="28" r="10" fill="#ff9547"/>
      <rect x="8" y="72" width="292" height="12" rx="6" fill="#d7d0c5"/>
      <rect x="8" y="92" width="214" height="12" rx="6" fill="#ddd6cb"/>
    </g>

    <g transform="translate(620 56)">
      <rect x="0" y="0" width="210" height="102" rx="18" fill="#fffdf9" stroke="#d0c9be" stroke-width="2"/>
      <g fill="#ff9547">
        <rect x="18" y="18" width="38" height="38" rx="10" opacity="0.9"/>
        <rect x="64" y="18" width="38" height="38" rx="10" opacity="0.7"/>
        <rect x="110" y="18" width="38" height="38" rx="10" opacity="0.55"/>
        <rect x="156" y="18" width="38" height="38" rx="10" opacity="0.82"/>
      </g>
      <rect x="18" y="72" width="174" height="12" rx="6" fill="#d9d2c6"/>
    </g>

    <g transform="translate(858 56)">
      <rect x="0" y="0" width="156" height="102" rx="18" fill="#fffdf9" stroke="#d0c9be" stroke-width="2"/>
      <g fill="#1f2630">
        <rect x="18" y="18" width="18" height="36" rx="6"/>
        <rect x="44" y="18" width="18" height="36" rx="6"/>
        <rect x="70" y="18" width="18" height="36" rx="6"/>
        <rect x="96" y="18" width="18" height="36" rx="6"/>
        <rect x="122" y="18" width="18" height="36" rx="6"/>
      </g>
      <rect x="18" y="72" width="120" height="12" rx="6" fill="#d9d2c6"/>
    </g>

    <g transform="translate(34 214)">
      <rect x="0" y="0" width="1010" height="178" rx="20" fill="#f3eee6" stroke="#d8d0c4" stroke-width="2"/>
      <g fill="#fffdf9" stroke="#d9d1c5" stroke-width="1.6">
        <rect x="16" y="12" width="40" height="146" rx="8"/>
        <rect x="60" y="12" width="40" height="146" rx="8"/>
        <rect x="104" y="12" width="40" height="146" rx="8"/>
        <rect x="148" y="12" width="40" height="146" rx="8"/>
        <rect x="192" y="12" width="40" height="146" rx="8"/>
        <rect x="236" y="12" width="40" height="146" rx="8"/>
        <rect x="280" y="12" width="40" height="146" rx="8"/>
        <rect x="324" y="12" width="40" height="146" rx="8"/>
        <rect x="368" y="12" width="40" height="146" rx="8"/>
        <rect x="412" y="12" width="40" height="146" rx="8"/>
        <rect x="456" y="12" width="40" height="146" rx="8"/>
        <rect x="500" y="12" width="40" height="146" rx="8"/>
        <rect x="544" y="12" width="40" height="146" rx="8"/>
        <rect x="588" y="12" width="40" height="146" rx="8"/>
        <rect x="632" y="12" width="40" height="146" rx="8"/>
        <rect x="676" y="12" width="40" height="146" rx="8"/>
        <rect x="720" y="12" width="40" height="146" rx="8"/>
        <rect x="764" y="12" width="40" height="146" rx="8"/>
        <rect x="808" y="12" width="40" height="146" rx="8"/>
        <rect x="852" y="12" width="40" height="146" rx="8"/>
        <rect x="896" y="12" width="40" height="146" rx="8"/>
        <rect x="940" y="12" width="40" height="146" rx="8"/>
      </g>
      <g fill="#20242b">
        <rect x="42" y="12" width="26" height="92" rx="6"/>
        <rect x="86" y="12" width="26" height="92" rx="6"/>
        <rect x="174" y="12" width="26" height="92" rx="6"/>
        <rect x="218" y="12" width="26" height="92" rx="6"/>
        <rect x="262" y="12" width="26" height="92" rx="6"/>
        <rect x="350" y="12" width="26" height="92" rx="6"/>
        <rect x="394" y="12" width="26" height="92" rx="6"/>
        <rect x="482" y="12" width="26" height="92" rx="6"/>
        <rect x="526" y="12" width="26" height="92" rx="6"/>
        <rect x="570" y="12" width="26" height="92" rx="6"/>
        <rect x="658" y="12" width="26" height="92" rx="6"/>
        <rect x="702" y="12" width="26" height="92" rx="6"/>
        <rect x="790" y="12" width="26" height="92" rx="6"/>
        <rect x="834" y="12" width="26" height="92" rx="6"/>
        <rect x="878" y="12" width="26" height="92" rx="6"/>
      </g>
      <g>
        <rect x="148" y="136" width="40" height="16" rx="8" fill="#ff9547"/>
        <rect x="500" y="136" width="40" height="16" rx="8" fill="#6f93eb"/>
        <rect x="852" y="136" width="40" height="16" rx="8" fill="#ff9547"/>
      </g>
    </g>
  </g>
</svg>